<?xml version="1.0" standalone="no"?>
<!DOCTYPE svg PUBLIC "-//W3C//DTD SVG 20010904//EN"
 "http://www.w3.org/TR/2001/REC-SVG-20010904/DTD/svg10.dtd">
<svg version="1.0" xmlns="http://www.w3.org/2000/svg"
 width="300.000000pt" height="184.000000pt" viewBox="0 0 300.000000 184.000000"
 preserveAspectRatio="xMidYMid meet">
<metadata>
Created by potrace 1.10, written by Peter Selinger 2001-2011
</metadata>
<g transform="translate(0.000000,184.000000) scale(0.100000,-0.100000)"
fill="#000000" stroke="none">
<path d="M1109 1525 c-140 -80 -266 -159 -281 -175 l-28 -30 0 -305 c0 -236 3
-313 14 -338 11 -27 52 -54 279 -184 191 -110 275 -153 298 -153 23 0 94 36
243 122 116 67 236 136 266 153 86 48 85 43 85 395 0 272 -2 308 -17 330 -10
15 -115 82 -243 155 -303 174 -304 175 -335 175 -16 0 -127 -57 -281 -145z
m354 96 c26 -12 47 -26 47 -31 0 -6 3 -9 8 -8 14 3 61 -25 56 -33 -3 -5 2 -6
10 -3 9 3 16 1 16 -5 0 -6 5 -11 11 -11 7 0 18 -8 26 -17 8 -10 12 -13 8 -6
-3 7 23 -4 57 -23 35 -20 65 -40 66 -45 2 -5 8 -7 13 -3 5 3 9 0 9 -5 0 -6 3
-10 8 -9 7 2 103 -51 112 -62 3 -4 13 -10 23 -13 29 -11 15 -29 -54 -70 -110
-64 -130 -72 -140 -56 -5 8 -6 21 -3 31 2 9 0 19 -5 23 -7 4 -8 -1 -4 -12 4
-10 -14 3 -40 29 -26 26 -59 53 -74 62 -106 56 -117 59 -216 61 -93 1 -100 0
-172 -35 -41 -21 -76 -35 -78 -31 -2 3 -2 0 0 -8 2 -8 -2 -11 -12 -7 -8 3 -14
2 -12 -2 4 -14 -51 -72 -56 -59 -3 7 -6 4 -6 -6 -1 -9 -12 -35 -26 -57 -14
-22 -25 -44 -25 -50 0 -5 -4 -10 -8 -10 -12 0 -17 -55 -16 -167 1 -86 5 -107
24 -137 27 -44 23 -55 -26 -81 -22 -11 -64 -34 -94 -52 -30 -18 -58 -33 -62
-33 -4 0 -7 142 -7 315 l0 314 33 34 c19 19 44 38 57 42 13 4 26 11 29 14 6 8
58 39 140 84 30 17 66 38 79 49 13 10 30 18 38 18 8 0 21 7 30 15 8 8 19 13
24 10 5 -4 9 -2 9 3 0 6 16 19 36 31 19 12 32 15 29 9 -4 -7 0 -5 8 4 8 10 17
15 20 11 4 -3 7 -1 7 5 0 17 47 9 103 -17z m84 -256 c73 -33 104 -56 152 -114
l41 -49 -92 -51 c-61 -34 -94 -47 -97 -40 -7 23 -53 58 -97 75 -79 30 -164 2
-220 -72 -26 -33 -29 -46 -29 -110 0 -66 3 -76 31 -110 43 -54 73 -73 124 -80
66 -9 125 10 168 56 l38 38 87 -50 87 -51 -43 -51 c-117 -137 -308 -183 -464
-112 -159 73 -240 208 -231 385 5 102 36 174 103 245 115 120 298 157 442 91z
m413 -374 c-1 -260 -3 -310 -16 -315 -7 -3 -14 -2 -14 3 0 5 -39 31 -87 59
-51 29 -92 60 -98 74 -5 13 -30 33 -55 45 -25 12 -40 22 -35 23 6 0 -10 9 -34
21 -25 11 -52 19 -60 18 -22 -3 -67 17 -119 52 -51 35 -44 36 -155 -28 -58
-33 -65 -27 -66 61 0 66 29 132 55 122 8 -3 11 0 8 8 -7 17 64 46 112 46 42 0
118 -36 108 -52 -4 -6 -3 -8 3 -5 6 4 18 -2 27 -12 19 -21 14 -27 -43 -56 -19
-9 -44 -26 -55 -37 -23 -23 -22 -22 54 24 19 11 78 44 130 71 52 28 97 54 100
58 8 12 213 127 228 128 10 1 12 -63 12 -308z m-540 -26 c7 -8 15 -13 19 -11
3 2 25 -8 48 -23 34 -21 39 -29 30 -41 -38 -50 -130 -73 -174 -45 -14 9 -22
11 -18 5 4 -7 -6 -5 -23 5 -17 10 -29 22 -26 27 3 4 -2 8 -12 8 -24 0 -1 25
39 41 18 7 34 16 37 19 8 11 44 29 56 30 6 0 17 -7 24 -15z m-360 -209 c5 -13
25 -36 45 -52 27 -20 33 -29 23 -36 -10 -7 -10 -8 2 -6 23 4 81 -23 73 -35 -3
-5 -1 -7 5 -3 6 3 13 2 17 -4 4 -6 10 -8 14 -6 4 3 27 -2 51 -10 105 -36 317
14 368 88 8 11 21 17 29 14 8 -3 12 -2 9 3 -3 4 4 18 15 29 10 12 20 25 22 29
3 10 9 8 85 -30 34 -17 62 -34 62 -39 0 -4 6 -8 14 -8 26 0 29 -21 6 -42 -12
-11 -57 -39 -99 -62 -43 -22 -95 -53 -117 -67 -77 -51 -157 -90 -173 -84 -8 3
-13 3 -9 0 3 -4 -1 -15 -10 -25 -12 -15 -19 -17 -36 -8 -18 10 -19 9 -9 -4 11
-12 9 -17 -13 -26 -14 -7 -31 -12 -39 -12 -16 0 -105 46 -120 62 -7 8 -6 9 4
3 10 -6 12 -4 7 4 -5 7 -16 9 -28 5 -15 -4 -18 -3 -13 6 5 9 4 11 -4 6 -6 -4
-24 0 -39 10 -15 10 -29 19 -32 19 -19 2 -90 53 -90 64 0 8 -3 11 -7 8 -3 -4
-12 -2 -20 4 -7 6 -13 8 -13 3 0 -5 -4 -4 -8 1 -4 6 -28 20 -54 32 -37 18 -46
26 -41 40 5 14 3 15 -7 6 -9 -8 -20 -6 -46 9 -19 11 -34 25 -34 31 0 7 5 5 10
-3 8 -13 10 -12 10 3 0 9 4 17 10 17 5 0 36 17 67 38 93 60 100 62 113 28z"/>
<path d="M1769 1162 c-2 -7 -14 -14 -26 -15 -12 0 -21 -4 -21 -7 2 -19 -4 -30
-15 -30 -8 0 -19 -12 -26 -26 -10 -22 -9 -30 5 -45 10 -11 14 -22 11 -26 -4
-3 -7 -3 -7 2 0 4 -7 2 -15 -5 -19 -16 -19 -39 1 -61 8 -9 16 -31 16 -49 1
-18 4 -26 9 -19 4 7 17 9 29 6 12 -3 19 -3 16 0 -3 4 -1 12 6 20 9 11 14 11
29 -3 22 -20 48 -15 63 11 6 11 19 26 29 33 22 17 20 69 -3 64 -10 -2 -7 4 7
17 16 15 22 32 21 57 -1 20 -4 30 -9 23 -5 -8 -8 -4 -11 12 -4 33 -51 39 -70
10 -12 -20 -13 -20 -24 11 -6 18 -13 27 -15 20z m5 -51 c-5 -25 -3 -28 19 -28
20 0 27 5 29 26 2 16 10 27 21 29 15 3 18 -2 15 -25 -2 -17 2 -28 10 -28 6 0
12 -3 12 -7 0 -5 0 -12 0 -17 0 -5 -9 -11 -20 -14 -13 -3 -20 -14 -20 -31 0
-18 4 -24 15 -20 10 4 15 0 15 -15 0 -14 -6 -21 -20 -21 -15 0 -20 -7 -20 -25
0 -19 -5 -25 -21 -25 -18 0 -20 4 -15 25 6 23 3 25 -24 25 -25 0 -30 -4 -30
-25 0 -18 -5 -25 -20 -25 -17 0 -19 5 -14 25 5 19 2 25 -10 25 -9 0 -16 8 -16
20 0 13 7 20 20 20 11 0 20 4 20 9 0 5 3 16 6 25 4 12 0 16 -16 16 -15 0 -20
5 -18 18 2 9 12 17 23 17 14 0 21 8 23 28 2 19 9 27 22 27 16 0 18 -5 14 -29z"/>
<path d="M1760 1036 c0 -8 -3 -22 -6 -31 -6 -13 -1 -16 21 -13 21 2 31 10 36
31 7 25 5 27 -22 27 -18 0 -29 -5 -29 -14z"/>
<path d="M1259 1093 c-13 -16 -12 -17 4 -4 9 7 17 15 17 17 0 8 -8 3 -21 -13z"/>
<path d="M1134 508 c-4 -7 -4 -10 1 -6 4 4 15 2 24 -5 14 -11 14 -10 2 6 -16
20 -18 21 -27 5z"/>
</g>
</svg>
