<?xml version="1.0" standalone="no"?>
<!DOCTYPE svg PUBLIC "-//W3C//DTD SVG 20010904//EN"
 "http://www.w3.org/TR/2001/REC-SVG-20010904/DTD/svg10.dtd">
<svg version="1.0" xmlns="http://www.w3.org/2000/svg"
 width="1200.000000pt" height="1200.000000pt" viewBox="0 0 1200.000000 1200.000000"
 preserveAspectRatio="xMidYMid meet">
<metadata>
Created by potrace 1.16, written by Peter Selinger 2001-2019
</metadata>
<g transform="translate(0.000000,1200.000000) scale(0.100000,-0.100000)"
fill="#000000" stroke="none">
<path d="M2540 11190 l0 -810 275 0 275 0 0 270 0 270 240 0 240 0 0 -270 0
-270 275 0 275 0 0 810 0 810 -275 0 -275 0 0 -265 0 -265 -245 0 -245 0 0
265 0 265 -270 0 -270 0 0 -810z"/>
<path d="M4350 11730 l0 -270 235 0 235 0 0 -540 0 -540 275 0 275 0 0 540 0
540 240 0 240 0 0 270 0 270 -750 0 -750 0 0 -270z"/>
<path d="M6080 11190 l0 -810 270 0 270 0 2 387 3 386 179 -276 c98 -153 182
-277 185 -277 3 0 87 125 186 277 l180 278 3 -388 2 -387 275 0 275 0 0 810 0
810 -289 0 -288 0 -170 -279 -169 -279 -170 279 -169 279 -287 0 -288 0 0
-810z"/>
<path d="M8170 11190 l0 -810 655 0 655 0 0 270 0 270 -380 0 -380 0 0 540 0
540 -275 0 -275 0 0 -810z"/>
<path d="M1745 9613 c3 -21 23 -240 45 -488 22 -247 69 -781 105 -1185 36
-404 85 -960 110 -1235 122 -1369 232 -2602 290 -3260 36 -401 86 -957 111
-1235 24 -278 59 -673 78 -877 18 -205 35 -374 37 -376 10 -8 3456 -957 3475
-957 11 0 133 31 270 69 292 82 1292 359 2349 651 791 219 856 238 863 244 3
4 16 120 28 259 26 294 145 1621 209 2342 25 275 65 730 90 1010 25 281 65
735 90 1010 25 275 56 628 70 785 14 157 45 510 70 785 25 275 83 932 130
1460 46 528 87 977 90 998 l5 37 -4260 0 -4260 0 5 -37z m6919 -1785 c-5 -46
-94 -1004 -94 -1019 0 -5 -817 -9 -2035 -9 -1119 0 -2035 -3 -2035 -7 0 -23
92 -1032 96 -1050 l4 -23 1935 0 c1924 0 1935 0 1935 -20 0 -31 -290 -3253
-293 -3256 -5 -5 -2169 -604 -2183 -604 -21 0 -2168 600 -2176 608 -4 4 -38
365 -77 802 -39 437 -73 812 -76 833 l-5 37 540 0 c425 0 540 -3 540 -12 0
-28 72 -833 75 -836 7 -7 1161 -314 1180 -314 18 0 1175 309 1181 315 3 3 124
1331 124 1360 0 16 -122 17 -1842 19 l-1843 3 -142 1565 c-78 861 -142 1584
-142 1608 l-1 42 2670 0 2670 0 -6 -42z"/>
</g>
</svg>
