<?xml version="1.0" standalone="no"?>
<!DOCTYPE svg PUBLIC "-//W3C//DTD SVG 20010904//EN"
 "http://www.w3.org/TR/2001/REC-SVG-20010904/DTD/svg10.dtd">
<svg version="1.0" xmlns="http://www.w3.org/2000/svg"
 width="189.000000pt" height="266.000000pt" viewBox="0 0 189.000000 266.000000"
 preserveAspectRatio="xMidYMid meet">
<metadata>
Created by potrace 1.16, written by Peter Selinger 2001-2019
</metadata>
<g transform="translate(0.000000,266.000000) scale(0.100000,-0.100000)"
fill="#000000" stroke="none">
<path d="M760 2540 l0 -120 -85 0 -86 0 3 -57 3 -58 143 -3 142 -3 0 181 0
180 -60 0 -60 0 0 -120z"/>
<path d="M1010 2592 l0 -69 54 -52 55 -51 -54 0 -53 0 -4 -56 c-2 -34 1 -58 8
-61 5 -2 71 -2 145 -1 l134 3 3 56 3 55 -59 57 -60 56 57 3 56 3 0 60 0 60
-142 3 -143 3 0 -69z"/>
</g>
</svg>
