<?xml version="1.0" standalone="no"?>
<!DOCTYPE svg PUBLIC "-//W3C//DTD SVG 20010904//EN"
 "http://www.w3.org/TR/2001/REC-SVG-20010904/DTD/svg10.dtd">
<svg version="1.0" xmlns="http://www.w3.org/2000/svg"
 width="300.000000pt" height="184.000000pt" viewBox="0 0 300.000000 184.000000"
 preserveAspectRatio="xMidYMid meet">
<metadata>
Created by potrace 1.10, written by Peter Selinger 2001-2011
</metadata>
<g transform="translate(0.000000,184.000000) scale(0.100000,-0.100000)"
fill="#000000" stroke="none">
<path d="M1320 1567 c-3 -3 -51 -7 -106 -11 -56 -3 -126 -11 -155 -16 -30 -6
-67 -13 -84 -16 -166 -27 -394 -120 -515 -209 -60 -45 -115 -103 -106 -112 4
-5 17 4 28 20 11 15 24 27 30 27 6 0 26 16 45 35 19 19 57 48 85 63 28 15 65
35 82 44 17 9 39 17 49 18 9 0 17 4 17 8 0 5 6 9 13 9 6 1 49 15 94 31 70 25
127 40 178 47 6 1 18 5 28 9 10 5 21 6 24 3 3 -4 13 -2 22 2 55 30 445 33 611
5 58 -9 113 -24 123 -32 11 -10 17 -11 17 -4 0 7 8 12 18 12 13 0 14 -2 4 -9
-10 -6 -9 -10 7 -14 14 -3 19 -1 14 6 -4 8 -1 7 9 -1 9 -7 62 -28 119 -47 56
-19 134 -51 172 -70 38 -19 73 -32 78 -29 5 3 8 1 7 -4 -2 -5 25 -31 59 -56
207 -156 234 -360 71 -532 -142 -151 -396 -256 -720 -298 -121 -15 -391 -20
-465 -8 -29 5 -50 5 -47 0 3 -4 -7 -8 -23 -7 -25 0 -26 1 -8 9 17 7 16 9 -10
9 -17 1 -45 5 -63 10 -20 6 -30 6 -27 0 4 -5 -6 -9 -22 -9 -22 0 -25 2 -13 10
9 6 10 10 3 10 -6 0 -19 3 -29 7 -12 4 -15 3 -10 -5 4 -7 3 -12 -2 -12 -6 0
-12 7 -16 15 -3 8 -13 15 -23 15 -15 0 -16 -2 -3 -10 9 -6 10 -10 3 -10 -6 0
-19 7 -28 16 -8 9 -22 13 -31 10 -9 -3 -12 -2 -9 5 4 6 -3 7 -19 3 -16 -4 -26
-2 -26 5 0 6 -6 8 -14 5 -7 -3 -26 6 -41 21 -18 16 -35 23 -47 19 -11 -3 -18
0 -18 7 0 7 -3 10 -6 6 -10 -9 -106 42 -99 53 3 6 -1 7 -9 4 -9 -4 -18 1 -22
10 -3 9 -10 13 -15 10 -5 -3 -9 0 -9 5 0 6 -5 11 -11 11 -15 0 -39 26 -31 34
3 4 -2 4 -11 0 -10 -3 -17 -2 -15 3 4 13 -48 63 -58 55 -4 -4 -4 1 -1 11 4 9
2 17 -3 17 -10 0 -43 56 -38 64 2 2 -5 13 -15 24 -11 12 -16 25 -13 31 4 5 2
12 -4 16 -6 3 -8 37 -6 81 3 64 9 83 39 134 32 53 36 70 17 70 -4 0 -22 -30
-41 -67 -28 -56 -35 -80 -38 -146 -3 -74 -1 -83 32 -150 70 -139 193 -238 407
-327 85 -35 270 -84 381 -100 136 -20 426 -23 565 -5 128 17 338 69 416 103
24 11 52 22 63 26 57 20 188 109 247 167 93 91 128 166 128 271 0 107 -25 169
-101 251 -73 80 -129 122 -234 175 -142 72 -296 118 -485 146 -110 15 -351 31
-360 23z m-625 -1027 c3 -6 -1 -7 -9 -4 -18 7 -21 14 -7 14 6 0 13 -4 16 -10z
m488 -117 c-7 -2 -19 -2 -25 0 -7 3 -2 5 12 5 14 0 19 -2 13 -5z"/>
<path d="M1185 1513 c-336 -32 -649 -155 -783 -310 -53 -61 -79 -110 -58 -110
7 0 12 7 10 16 -7 27 132 171 165 171 6 0 11 4 11 10 0 16 199 105 310 138
200 60 294 72 580 75 80 0 132 4 115 8 -31 7 -280 8 -350 2z"/>
<path d="M1260 1427 c-22 -11 -27 -25 -44 -122 -11 -61 -21 -112 -24 -115 -2
-3 -14 7 -27 22 -48 55 -75 62 -267 66 -177 4 -210 -1 -215 -33 0 -5 -11 -57
-22 -115 -25 -126 -27 -133 -36 -190 -4 -25 -16 -83 -26 -130 -28 -120 -38
-200 -26 -207 6 -4 7 -1 2 7 -6 10 -4 11 11 4 10 -5 58 -9 106 -10 76 -1 86 1
80 15 -5 14 -4 14 14 1 18 -14 18 -14 4 4 -10 13 -11 20 -4 23 7 2 10 13 7 23
-3 11 -2 28 2 37 5 10 9 25 9 33 1 11 14 16 46 17 25 2 77 8 115 15 39 6 72
12 75 12 3 1 25 16 48 34 23 19 42 32 42 30 0 -2 -4 -18 -9 -36 -6 -18 -6 -30
-1 -27 4 3 10 -2 14 -10 4 -12 24 -15 89 -15 92 0 103 5 113 58 4 18 9 30 13
28 3 -2 7 19 7 48 1 29 9 87 19 129 l17 77 50 0 51 0 -7 -37 c-4 -21 -17 -87
-30 -148 -31 -142 -28 -149 72 -153 l70 -3 -9 -32 c-12 -43 -11 -94 1 -102 8
-5 7 -12 -2 -23 -10 -14 -10 -15 2 -5 11 10 18 9 34 -5 11 -9 16 -11 12 -4 -5
9 8 12 57 12 79 0 93 13 108 97 l11 60 91 6 c124 8 160 22 221 82 64 65 71 73
84 116 19 62 23 114 12 159 -7 25 -12 53 -13 62 -1 9 -4 15 -8 13 -3 -3 -17 7
-30 21 -51 55 -69 59 -269 59 l-185 0 -16 -33 c-15 -29 -18 -31 -30 -15 -27
32 -91 53 -168 53 l-74 0 6 43 c3 24 9 50 12 59 4 10 -2 25 -14 37 -17 17 -33
21 -83 21 -35 0 -74 -6 -88 -13z m164 -42 c0 -16 -4 -51 -8 -77 l-8 -48 83 0
c109 -1 163 -23 186 -77 l16 -38 11 55 11 55 186 0 186 0 42 -28 c149 -99 79
-367 -112 -431 -29 -10 -81 -16 -131 -16 l-83 0 -12 -62 c-7 -35 -16 -70 -20
-78 -10 -18 -146 -27 -166 -10 -12 10 -9 47 10 128 5 21 3 22 -74 22 -44 0
-82 4 -85 9 -3 4 8 77 25 161 16 84 27 155 24 158 -3 3 -32 8 -65 10 l-59 4
-9 -38 c-5 -22 -17 -82 -27 -134 -9 -52 -21 -112 -26 -132 l-10 -38 -77 0
c-43 0 -83 5 -89 11 -10 10 -6 42 11 97 6 17 -5 10 -41 -25 -61 -61 -124 -83
-238 -83 l-83 0 -13 -70 c-7 -39 -18 -75 -25 -81 -7 -5 -45 -9 -86 -7 l-73 3
-2 30 c-2 17 23 158 55 315 l57 285 163 3 c90 1 180 -2 201 -8 52 -14 90 -46
111 -92 l17 -38 28 143 c15 78 30 146 32 150 3 4 41 6 86 5 l82 -3 -1 -30z"/>
<path d="M1275 1390 c-1 -3 -6 -25 -10 -50 -6 -42 -90 -471 -100 -515 -4 -18
1 -20 61 -20 57 0 65 2 69 20 9 43 55 299 55 307 0 13 154 10 168 -4 17 -17
15 -50 -13 -188 -14 -68 -25 -126 -25 -129 0 -3 29 -6 64 -6 l64 0 31 155 c17
85 31 165 31 177 0 12 -11 35 -25 52 -31 36 -101 53 -202 50 -38 -1 -67 2 -66
7 11 63 22 122 25 132 2 10 -14 14 -60 15 -35 1 -65 0 -67 -3z m81 -93 c-5
-56 -4 -66 14 -82 10 -9 25 -15 32 -13 7 3 55 2 105 -2 119 -8 132 -18 126
-98 -2 -31 -13 -100 -23 -154 -11 -53 -20 -99 -20 -102 0 -3 -16 -6 -35 -6
-42 0 -41 -3 -15 132 26 133 25 144 -6 173 -24 22 -36 25 -104 25 -58 0 -81
-4 -91 -16 -7 -8 -27 -83 -44 -167 l-31 -151 -34 -4 -33 -3 7 38 c3 21 8 49
11 63 5 23 34 167 57 285 5 28 11 63 14 80 8 57 14 65 46 65 l31 0 -7 -63z"/>
<path d="M725 1228 c-2 -7 -13 -65 -25 -128 -32 -172 -80 -413 -86 -433 -5
-16 1 -18 63 -15 59 3 68 6 71 23 1 11 7 46 14 78 l11 57 106 0 c125 0 166 15
223 78 50 55 69 104 70 180 1 48 -3 69 -18 89 -52 69 -97 82 -292 83 -98 0
-134 -3 -137 -12z m335 -40 c19 -6 45 -20 58 -32 21 -18 23 -29 21 -96 -2 -78
-11 -101 -58 -153 -46 -51 -86 -64 -196 -66 -122 -3 -139 -14 -156 -103 -12
-57 -12 -58 -47 -58 l-35 0 7 38 c4 20 9 46 11 57 2 11 15 79 30 150 14 72 28
146 31 164 2 19 9 52 16 73 l11 37 101 4 c113 3 155 0 206 -15z"/>
<path d="M827 1154 c-17 -17 -28 -49 -42 -121 -31 -164 -25 -178 80 -170 112
9 151 33 186 114 27 62 25 115 -5 150 -47 55 -175 71 -219 27z m148 -14 c48
-11 65 -32 65 -82 0 -49 -20 -96 -54 -127 -22 -21 -40 -26 -111 -30 l-86 -6 5
25 c3 14 13 66 22 115 9 50 18 96 20 103 4 14 80 16 139 2z"/>
<path d="M846 1044 c-9 -44 -19 -89 -22 -101 -4 -21 -1 -23 33 -23 58 0 112
18 128 44 8 12 19 43 24 69 12 67 -1 80 -82 85 l-65 4 -16 -78z m144 41 c14
-17 6 -81 -14 -107 -28 -38 -126 -53 -126 -20 0 10 6 24 13 31 10 11 9 12 -2
6 -9 -5 -12 -2 -8 11 3 11 8 36 12 57 l6 37 53 0 c35 0 58 -5 66 -15z"/>
<path d="M1727 1204 c-7 -52 -96 -514 -103 -536 -5 -16 2 -18 60 -18 l64 0 7
33 c3 17 11 53 16 80 l11 47 104 0 c142 0 200 28 262 124 24 36 27 51 27 128
0 78 -2 89 -25 113 -49 53 -72 59 -251 63 l-166 4 -6 -38z m345 -14 c54 -15
78 -54 78 -128 0 -90 -38 -156 -110 -193 -49 -25 -66 -29 -150 -29 -121 -1
-144 -19 -151 -117 -2 -25 -23 -43 -50 -43 -28 0 -30 2 -25 28 3 15 8 47 11
72 3 25 10 56 15 70 4 14 18 81 30 150 12 69 26 143 31 165 l10 40 137 -3 c75
-1 154 -7 174 -12z"/>
<path d="M1841 1163 c-16 -14 -27 -38 -36 -84 -7 -35 -18 -88 -24 -117 -17
-84 -2 -99 94 -96 68 2 91 9 130 38 61 47 93 158 60 214 -23 39 -51 51 -133
58 -57 5 -71 3 -91 -13z m122 -19 c25 -4 56 -16 68 -27 19 -17 21 -27 16 -74
-10 -100 -52 -136 -169 -143 -43 -3 -78 -3 -78 -1 0 9 41 227 45 239 5 13 47
15 118 6z"/>
<path d="M1865 1108 c-2 -7 -8 -42 -14 -78 -6 -36 -14 -75 -17 -87 -6 -21 -3
-23 35 -23 22 0 59 7 81 16 47 19 70 61 70 125 0 33 -4 41 -26 49 -37 14 -124
13 -129 -2z m124 -18 c15 -8 17 -17 11 -55 -9 -62 -36 -87 -98 -93 l-49 -4 8
58 c16 108 14 104 65 104 25 0 53 -4 63 -10z"/>
</g>
</svg>
