<?xml version="1.0" standalone="no"?>
<!DOCTYPE svg PUBLIC "-//W3C//DTD SVG 20010904//EN"
 "http://www.w3.org/TR/2001/REC-SVG-20010904/DTD/svg10.dtd">
<svg version="1.0" xmlns="http://www.w3.org/2000/svg"
 width="300.000000pt" height="184.000000pt" viewBox="0 0 300.000000 184.000000"
 preserveAspectRatio="xMidYMid meet">
<metadata>
Created by potrace 1.10, written by Peter Selinger 2001-2011
</metadata>
<g transform="translate(0.000000,184.000000) scale(0.100000,-0.100000)"
fill="#000000" stroke="none">
<path d="M1275 1679 c-158 -15 -285 -70 -285 -124 0 -130 601 -177 822 -64 47
24 65 57 49 88 -17 31 -102 70 -189 87 -81 16 -296 23 -397 13z m332 -31 c14
-11 15 -11 9 0 -7 11 -4 12 10 4 11 -5 37 -12 59 -14 53 -7 142 -46 150 -65
10 -28 -4 -49 -46 -67 -29 -13 -52 -16 -77 -11 -21 4 -57 11 -82 15 -77 15
-371 9 -454 -8 -71 -15 -76 -15 -111 4 -45 24 -57 37 -49 57 8 23 105 68 154
73 14 1 25 3 25 4 0 1 27 8 60 14 80 17 330 12 352 -6z m-22 -150 c39 -6 74
-14 78 -18 5 -4 -38 -13 -95 -20 -133 -17 -378 -4 -378 19 0 4 6 8 13 9 6 1
41 5 77 10 91 12 222 12 305 0z"/>
<path d="M875 1500 c3 -30 5 -281 5 -557 l0 -501 24 -29 c32 -38 113 -78 211
-104 64 -17 119 -22 275 -26 172 -4 207 -2 300 17 121 24 219 66 261 111 l29
31 -1 547 c-1 300 -4 536 -6 524 -11 -55 -116 -109 -283 -146 -136 -29 -394
-29 -534 2 -164 35 -253 86 -276 157 -8 23 -9 18 -5 -26z m75 -92 c0 -5 4 -7
9 -4 5 3 31 -4 57 -16 27 -12 51 -23 54 -23 117 -29 146 -34 235 -39 50 -3 94
-6 98 -6 4 0 7 -55 6 -122 l-1 -123 -30 -12 c-17 -7 -34 -10 -39 -7 -5 3 -8 2
-7 -3 4 -11 -38 -64 -45 -57 -3 3 -8 0 -13 -7 -4 -8 -3 -10 4 -5 16 10 15 -9
-1 -26 -7 -7 -12 -28 -11 -45 2 -40 -4 -40 -52 -8 -20 14 -42 25 -49 25 -12 0
-25 21 -25 41 0 9 55 1 81 -12 23 -12 39 9 39 52 0 46 -15 58 -76 65 -109 12
-179 -37 -179 -124 0 -54 27 -92 79 -113 34 -15 86 -56 54 -44 -11 4 -18 2
-18 -4 0 -15 -20 -14 -54 4 -46 24 -65 12 -62 -40 1 -25 5 -47 7 -50 11 -10
75 -31 94 -30 96 6 149 31 160 78 l7 25 36 -35 c39 -37 98 -68 121 -64 8 1 10
-2 5 -10 -4 -7 -3 -10 3 -6 6 4 27 -12 48 -36 35 -40 39 -42 83 -38 26 2 52 7
59 13 12 9 14 50 3 43 -4 -2 -22 12 -41 32 -28 29 -30 34 -12 29 12 -4 24 -2
28 3 3 7 0 8 -9 5 -9 -3 -16 -2 -16 3 0 12 45 55 51 49 12 -12 18 164 7 194
-25 68 -127 130 -193 118 l-25 -5 0 126 0 126 93 4 c50 2 113 4 139 5 25 1 44
3 42 5 -3 3 19 11 48 18 56 14 160 54 168 64 3 3 15 11 27 18 l22 11 1 -489
c0 -294 -4 -500 -10 -516 -5 -14 -20 -30 -32 -36 -13 -5 -35 -17 -50 -25 -94
-51 -239 -82 -380 -82 l-68 0 -2 146 -2 147 -3 -149 -4 -149 -102 6 c-125 7
-297 51 -297 76 0 12 -2 13 -8 3 -7 -9 -14 -7 -33 9 -13 11 -33 27 -44 35 -20
14 -20 27 -22 519 l-2 505 24 -16 c14 -9 25 -21 25 -26z m268 -354 c18 -5 22
-13 22 -44 l0 -38 -40 15 c-32 13 -45 14 -66 4 -40 -18 -28 -51 28 -81 72 -39
88 -58 88 -102 0 -76 -41 -108 -137 -108 -73 0 -87 9 -90 59 l-3 40 33 -19
c38 -24 90 -26 107 -5 17 20 6 43 -31 63 -92 49 -124 105 -94 162 25 49 108
74 183 54z m327 -17 c106 -59 113 -248 11 -308 l-35 -20 49 -42 c27 -23 49
-45 49 -49 1 -5 -21 -8 -48 -8 -46 0 -52 3 -85 44 -26 31 -46 45 -70 49 -79
13 -126 77 -126 172 0 31 6 71 14 89 35 85 155 121 241 73z"/>
<path d="M1715 1072 c-22 -2 -43 -9 -47 -15 -4 -7 -8 -89 -8 -183 0 -140 3
-174 15 -184 10 -8 49 -12 117 -11 91 2 105 4 119 22 18 24 18 51 0 72 -9 11
-29 15 -67 14 l-54 -2 0 126 c0 150 -8 167 -75 161z m53 -159 l-3 -143 68 0
67 0 0 -35 0 -35 -110 0 -110 0 0 178 0 177 45 1 46 1 -3 -144z"/>
<path d="M1407 637 c-3 -8 -2 -20 3 -26 5 -9 8 -4 8 13 0 29 -3 32 -11 13z"/>
<path d="M1413 975 c-47 -33 -54 -144 -12 -186 30 -30 92 -26 118 7 32 40 30
132 -4 168 -28 30 -69 34 -102 11z m87 -20 c24 -29 24 -165 -1 -150 -5 4 -9 2
-9 -3 0 -14 -25 -22 -49 -15 -19 5 -21 12 -21 92 l0 87 34 2 c20 2 38 -4 46
-13z m-92 -102 l-4 -28 -8 28 c-5 15 -5 39 0 55 l8 27 4 -27 c2 -16 2 -40 0
-55z"/>
</g>
</svg>
